<svg xmlns="http://www.w3.org/2000/svg" xmlns:xlink="http://www.w3.org/1999/xlink" width="36" height="34" viewBox="0 0 36 34"><defs><clipPath id="a"><ellipse cx="18" cy="17" rx="18" ry="17" transform="translate(0 -0.254)" fill="none" stroke="#fff" stroke-width="1"/></clipPath></defs><g transform="translate(-91 -408.352)"><g transform="translate(91 408.606)" clip-path="url(#a)"><path d="M18.511,18.177a6.944,6.944,0,0,0,7.006-6.839,7.008,7.008,0,0,0-14.011,0A6.944,6.944,0,0,0,18.511,18.177Zm0,3.419C13.87,21.6,4.5,23.9,4.5,28.435v3.419H32.522V28.435C32.522,23.9,23.152,21.6,18.511,21.6Z" transform="translate(-0.349 1.892)" fill="#fff"/></g><g transform="translate(91 408.352)" fill="none" stroke="#fff" stroke-width="1"><ellipse cx="18" cy="17" rx="18" ry="17" stroke="none"/><ellipse cx="18" cy="17" rx="17.5" ry="16.5" fill="none"/></g></g></svg>