<svg xmlns="http://www.w3.org/2000/svg" xmlns:xlink="http://www.w3.org/1999/xlink" width="1250" height="202" viewBox="0 0 1250 202">
  <defs>
    <filter id="타원_21" x="10" y="6" width="157" height="156" filterUnits="userSpaceOnUse">
      <feOffset input="SourceAlpha"/>
      <feGaussianBlur stdDeviation="3" result="blur"/>
      <feFlood flood-color="#fff"/>
      <feComposite operator="in" in2="blur"/>
      <feComposite in="SourceGraphic"/>
    </filter>
    <clipPath id="clip-path">
      <path id="합치기_1" data-name="합치기 1" d="M26.749,173H0V0H87.321V82.528H170V173Z" transform="translate(0 -0.303)" fill="#fff" stroke="#707070" stroke-width="1"/>
    </clipPath>
    <filter id="패스_142" x="8.944" y="5.227" width="158.771" height="158.771" filterUnits="userSpaceOnUse">
      <feOffset input="SourceAlpha"/>
      <feGaussianBlur stdDeviation="3" result="blur-2"/>
      <feFlood flood-color="#fff"/>
      <feComposite operator="in" in2="blur-2"/>
      <feComposite in="SourceGraphic"/>
    </filter>
    <filter id="타원_21-2" x="280" y="6" width="157" height="156" filterUnits="userSpaceOnUse">
      <feOffset input="SourceAlpha"/>
      <feGaussianBlur stdDeviation="3" result="blur-3"/>
      <feFlood flood-color="#fff"/>
      <feComposite operator="in" in2="blur-3"/>
      <feComposite in="SourceGraphic"/>
    </filter>
    <filter id="패스_142-2" x="278.944" y="5.227" width="158.771" height="158.771" filterUnits="userSpaceOnUse">
      <feOffset input="SourceAlpha"/>
      <feGaussianBlur stdDeviation="3" result="blur-4"/>
      <feFlood flood-color="#fff"/>
      <feComposite operator="in" in2="blur-4"/>
      <feComposite in="SourceGraphic"/>
    </filter>
    <filter id="타원_21-3" x="550" y="6" width="157" height="156" filterUnits="userSpaceOnUse">
      <feOffset input="SourceAlpha"/>
      <feGaussianBlur stdDeviation="3" result="blur-5"/>
      <feFlood flood-color="#fff"/>
      <feComposite operator="in" in2="blur-5"/>
      <feComposite in="SourceGraphic"/>
    </filter>
    <filter id="패스_142-3" x="548.944" y="5.227" width="158.771" height="158.771" filterUnits="userSpaceOnUse">
      <feOffset input="SourceAlpha"/>
      <feGaussianBlur stdDeviation="3" result="blur-6"/>
      <feFlood flood-color="#fff"/>
      <feComposite operator="in" in2="blur-6"/>
      <feComposite in="SourceGraphic"/>
    </filter>
    <filter id="타원_21-4" x="820" y="6" width="157" height="156" filterUnits="userSpaceOnUse">
      <feOffset input="SourceAlpha"/>
      <feGaussianBlur stdDeviation="3" result="blur-7"/>
      <feFlood flood-color="#fff"/>
      <feComposite operator="in" in2="blur-7"/>
      <feComposite in="SourceGraphic"/>
    </filter>
    <filter id="패스_142-4" x="818.944" y="5.227" width="158.771" height="158.771" filterUnits="userSpaceOnUse">
      <feOffset input="SourceAlpha"/>
      <feGaussianBlur stdDeviation="3" result="blur-8"/>
      <feFlood flood-color="#fff"/>
      <feComposite operator="in" in2="blur-8"/>
      <feComposite in="SourceGraphic"/>
    </filter>
    <filter id="타원_21-5" x="1090" y="6" width="157" height="156" filterUnits="userSpaceOnUse">
      <feOffset input="SourceAlpha"/>
      <feGaussianBlur stdDeviation="3" result="blur-9"/>
      <feFlood flood-color="#fff"/>
      <feComposite operator="in" in2="blur-9"/>
      <feComposite in="SourceGraphic"/>
    </filter>
    <filter id="패스_142-5" x="1088.944" y="5.227" width="158.771" height="158.771" filterUnits="userSpaceOnUse">
      <feOffset input="SourceAlpha"/>
      <feGaussianBlur stdDeviation="3" result="blur-10"/>
      <feFlood flood-color="#fff"/>
      <feComposite operator="in" in2="blur-10"/>
      <feComposite in="SourceGraphic"/>
    </filter>
  </defs>
  <g id="그룹_133" data-name="그룹 133" transform="translate(-534 -2142)">
    <g id="Photoshop1" transform="translate(-1)">
      <text id="Photoshop" transform="translate(545 2338)" fill="#878787" font-size="24" font-family="SegoeUI, Segoe UI"><tspan x="0" y="0">Photoshop</tspan></text>
      <g id="그룹_103" data-name="그룹 103" transform="translate(-128 -724)">
        <g id="그룹_55" data-name="그룹 55" transform="translate(663 2866.303)">
          <g transform="matrix(1, 0, 0, 1, 0, -0.3)" filter="url(#타원_21)">
            <g id="타원_21-6" data-name="타원 21" transform="translate(19 15)" fill="none" stroke="#fff" stroke-width="1">
              <ellipse cx="69.5" cy="69" rx="69.5" ry="69" stroke="none"/>
              <ellipse cx="69.5" cy="69" rx="69" ry="68.5" fill="none"/>
            </g>
          </g>
          <g id="마스크_그룹_22" data-name="마스크 그룹 22" transform="translate(0 0)" clip-path="url(#clip-path)">
            <g transform="matrix(1, 0, 0, 1, 0, -0.3)" filter="url(#패스_142)">
              <g id="패스_142-6" data-name="패스 142" transform="translate(17.94 14.23)" fill="none">
                <path d="M70.385,0A70.385,70.385,0,1,1,0,70.385,70.385,70.385,0,0,1,70.385,0Z" stroke="none"/>
                <path d="M 70.38548278808594 5 C 61.55629730224609 5 52.99386596679688 6.72808837890625 44.93605041503906 10.13627624511719 C 41.06275177001953 11.77452087402344 37.32659912109375 13.80249786376953 33.83132171630859 16.16384124755859 C 30.36798095703125 18.50363159179688 27.11105346679688 21.19088745117188 24.15096282958984 24.15095520019531 C 21.19089508056641 27.11104583740234 18.50363922119141 30.36797332763672 16.16384887695312 33.83131408691406 C 13.80250549316406 37.32659149169922 11.77452087402344 41.062744140625 10.13627624511719 44.93604278564453 C 6.728103637695312 52.99385833740234 5 61.55628967285156 5 70.38547515869141 C 5 79.21466064453125 6.728103637695312 87.77708435058594 10.13627624511719 95.83490753173828 C 11.77452087402344 99.70820617675781 13.80250549316406 103.4443664550781 16.16384887695312 106.9396362304688 C 18.50363922119141 110.4029769897461 21.19089508056641 113.6599044799805 24.15096282958984 116.6199951171875 C 27.11105346679688 119.5800628662109 30.36798095703125 122.2673187255859 33.83132171630859 124.6071090698242 C 37.32659912109375 126.9684524536133 41.06275177001953 128.9964294433594 44.93605041503906 130.6346740722656 C 52.99386596679688 134.0428619384766 61.55629730224609 135.7709503173828 70.38548278808594 135.7709503173828 C 79.21466064453125 135.7709503173828 87.777099609375 134.0428619384766 95.83491516113281 130.6346740722656 C 99.70820617675781 128.9964294433594 103.4443664550781 126.9684524536133 106.9396362304688 124.6071090698242 C 110.4029846191406 122.2673187255859 113.659912109375 119.5800628662109 116.620002746582 116.6199951171875 C 119.580078125 113.6599044799805 122.2673263549805 110.4029769897461 124.6071166992188 106.9396362304688 C 126.9684600830078 103.4443664550781 128.9964294433594 99.70820617675781 130.6346893310547 95.83490753173828 C 134.0428619384766 87.77708435058594 135.7709655761719 79.21466064453125 135.7709655761719 70.38547515869141 C 135.7709655761719 61.55628967285156 134.0428619384766 52.99385833740234 130.6346893310547 44.93604278564453 C 128.9964294433594 41.062744140625 126.9684600830078 37.32659149169922 124.6071166992188 33.83131408691406 C 122.2673263549805 30.36797332763672 119.580078125 27.11104583740234 116.620002746582 24.15095520019531 C 113.659912109375 21.19088745117188 110.4029846191406 18.50363159179688 106.9396362304688 16.16384124755859 C 103.4443664550781 13.80249786376953 99.70820617675781 11.77452087402344 95.83491516113281 10.13627624511719 C 87.777099609375 6.72808837890625 79.21466064453125 5 70.38548278808594 5 M 70.38548278808594 0 C 109.25830078125 0 140.7709655761719 31.51265716552734 140.7709655761719 70.38547515869141 C 140.7709655761719 109.2582931518555 109.25830078125 140.7709503173828 70.38548278808594 140.7709503173828 C 31.51266479492188 140.7709503173828 0 109.2582931518555 0 70.38547515869141 C 0 31.51265716552734 31.51266479492188 0 70.38548278808594 0 Z" stroke="none" fill="#dcdcdc"/>
              </g>
            </g>
          </g>
        </g>
        <text id="_75_" data-name="75%" transform="translate(726 2960)" fill="#fff" font-size="24" font-family="SegoeUI, Segoe UI"><tspan x="0" y="0">75%</tspan></text>
      </g>
    </g>
    <g id="Photoshop2" transform="translate(269)">
      <text id="Photoshop-2" data-name="Photoshop" transform="translate(545 2338)" fill="#878787" font-size="24" font-family="SegoeUI, Segoe UI"><tspan x="0" y="0">Photoshop</tspan></text>
      <g id="그룹_103-2" data-name="그룹 103" transform="translate(-128 -724)">
        <g id="그룹_55-2" data-name="그룹 55" transform="translate(663 2866.303)">
          <g transform="matrix(1, 0, 0, 1, -270, -0.3)" filter="url(#타원_21-2)">
            <g id="타원_21-7" data-name="타원 21" transform="translate(289 15)" fill="none" stroke="#fff" stroke-width="1">
              <ellipse cx="69.5" cy="69" rx="69.5" ry="69" stroke="none"/>
              <ellipse cx="69.5" cy="69" rx="69" ry="68.5" fill="none"/>
            </g>
          </g>
          <g id="마스크_그룹_22-2" data-name="마스크 그룹 22" transform="translate(0 0)" clip-path="url(#clip-path)">
            <g transform="matrix(1, 0, 0, 1, -270, -0.3)" filter="url(#패스_142-2)">
              <g id="패스_142-7" data-name="패스 142" transform="translate(287.94 14.23)" fill="none">
                <path d="M70.385,0A70.385,70.385,0,1,1,0,70.385,70.385,70.385,0,0,1,70.385,0Z" stroke="none"/>
                <path d="M 70.38548278808594 5 C 61.55629730224609 5 52.99386596679688 6.72808837890625 44.93605041503906 10.13627624511719 C 41.06275177001953 11.77452087402344 37.32659912109375 13.80249786376953 33.83132171630859 16.16384124755859 C 30.36798095703125 18.50363159179688 27.11105346679688 21.19088745117188 24.15096282958984 24.15095520019531 C 21.19089508056641 27.11104583740234 18.50363922119141 30.36797332763672 16.16384887695312 33.83131408691406 C 13.80250549316406 37.32659149169922 11.77452087402344 41.062744140625 10.13627624511719 44.93604278564453 C 6.728103637695312 52.99385833740234 5 61.55628967285156 5 70.38547515869141 C 5 79.21466064453125 6.728103637695312 87.77708435058594 10.13627624511719 95.83490753173828 C 11.77452087402344 99.70820617675781 13.80250549316406 103.4443664550781 16.16384887695312 106.9396362304688 C 18.50363922119141 110.4029769897461 21.19089508056641 113.6599044799805 24.15096282958984 116.6199951171875 C 27.11105346679688 119.5800628662109 30.36798095703125 122.2673187255859 33.83132171630859 124.6071090698242 C 37.32659912109375 126.9684524536133 41.06275177001953 128.9964294433594 44.93605041503906 130.6346740722656 C 52.99386596679688 134.0428619384766 61.55629730224609 135.7709503173828 70.38548278808594 135.7709503173828 C 79.21466064453125 135.7709503173828 87.777099609375 134.0428619384766 95.83491516113281 130.6346740722656 C 99.70820617675781 128.9964294433594 103.4443664550781 126.9684524536133 106.9396362304688 124.6071090698242 C 110.4029846191406 122.2673187255859 113.659912109375 119.5800628662109 116.620002746582 116.6199951171875 C 119.580078125 113.6599044799805 122.2673263549805 110.4029769897461 124.6071166992188 106.9396362304688 C 126.9684600830078 103.4443664550781 128.9964294433594 99.70820617675781 130.6346893310547 95.83490753173828 C 134.0428619384766 87.77708435058594 135.7709655761719 79.21466064453125 135.7709655761719 70.38547515869141 C 135.7709655761719 61.55628967285156 134.0428619384766 52.99385833740234 130.6346893310547 44.93604278564453 C 128.9964294433594 41.062744140625 126.9684600830078 37.32659149169922 124.6071166992188 33.83131408691406 C 122.2673263549805 30.36797332763672 119.580078125 27.11104583740234 116.620002746582 24.15095520019531 C 113.659912109375 21.19088745117188 110.4029846191406 18.50363159179688 106.9396362304688 16.16384124755859 C 103.4443664550781 13.80249786376953 99.70820617675781 11.77452087402344 95.83491516113281 10.13627624511719 C 87.777099609375 6.72808837890625 79.21466064453125 5 70.38548278808594 5 M 70.38548278808594 0 C 109.25830078125 0 140.7709655761719 31.51265716552734 140.7709655761719 70.38547515869141 C 140.7709655761719 109.2582931518555 109.25830078125 140.7709503173828 70.38548278808594 140.7709503173828 C 31.51266479492188 140.7709503173828 0 109.2582931518555 0 70.38547515869141 C 0 31.51265716552734 31.51266479492188 0 70.38548278808594 0 Z" stroke="none" fill="#dcdcdc"/>
              </g>
            </g>
          </g>
        </g>
        <text id="_75_2" data-name="75%" transform="translate(726 2960)" fill="#fff" font-size="24" font-family="SegoeUI, Segoe UI"><tspan x="0" y="0">75%</tspan></text>
      </g>
    </g>
    <g id="Photoshop3" transform="translate(539)">
      <text id="Photoshop-3" data-name="Photoshop" transform="translate(545 2338)" fill="#878787" font-size="24" font-family="SegoeUI, Segoe UI"><tspan x="0" y="0">Photoshop</tspan></text>
      <g id="그룹_103-3" data-name="그룹 103" transform="translate(-128 -724)">
        <g id="그룹_55-3" data-name="그룹 55" transform="translate(663 2866.303)">
          <g transform="matrix(1, 0, 0, 1, -540, -0.3)" filter="url(#타원_21-3)">
            <g id="타원_21-8" data-name="타원 21" transform="translate(559 15)" fill="none" stroke="#fff" stroke-width="1">
              <ellipse cx="69.5" cy="69" rx="69.5" ry="69" stroke="none"/>
              <ellipse cx="69.5" cy="69" rx="69" ry="68.5" fill="none"/>
            </g>
          </g>
          <g id="마스크_그룹_22-3" data-name="마스크 그룹 22" transform="translate(0 0)" clip-path="url(#clip-path)">
            <g transform="matrix(1, 0, 0, 1, -540, -0.3)" filter="url(#패스_142-3)">
              <g id="패스_142-8" data-name="패스 142" transform="translate(557.94 14.23)" fill="none">
                <path d="M70.385,0A70.385,70.385,0,1,1,0,70.385,70.385,70.385,0,0,1,70.385,0Z" stroke="none"/>
                <path d="M 70.38548278808594 5 C 61.55629730224609 5 52.99386596679688 6.72808837890625 44.93605041503906 10.13627624511719 C 41.06275177001953 11.77452087402344 37.32659912109375 13.80249786376953 33.83132171630859 16.16384124755859 C 30.36798095703125 18.50363159179688 27.11105346679688 21.19088745117188 24.15096282958984 24.15095520019531 C 21.19089508056641 27.11104583740234 18.50363922119141 30.36797332763672 16.16384887695312 33.83131408691406 C 13.80250549316406 37.32659149169922 11.77452087402344 41.062744140625 10.13627624511719 44.93604278564453 C 6.728103637695312 52.99385833740234 5 61.55628967285156 5 70.38547515869141 C 5 79.21466064453125 6.728103637695312 87.77708435058594 10.13627624511719 95.83490753173828 C 11.77452087402344 99.70820617675781 13.80250549316406 103.4443664550781 16.16384887695312 106.9396362304688 C 18.50363922119141 110.4029769897461 21.19089508056641 113.6599044799805 24.15096282958984 116.6199951171875 C 27.11105346679688 119.5800628662109 30.36798095703125 122.2673187255859 33.83132171630859 124.6071090698242 C 37.32659912109375 126.9684524536133 41.06275177001953 128.9964294433594 44.93605041503906 130.6346740722656 C 52.99386596679688 134.0428619384766 61.55629730224609 135.7709503173828 70.38548278808594 135.7709503173828 C 79.21466064453125 135.7709503173828 87.777099609375 134.0428619384766 95.83491516113281 130.6346740722656 C 99.70820617675781 128.9964294433594 103.4443664550781 126.9684524536133 106.9396362304688 124.6071090698242 C 110.4029846191406 122.2673187255859 113.659912109375 119.5800628662109 116.620002746582 116.6199951171875 C 119.580078125 113.6599044799805 122.2673263549805 110.4029769897461 124.6071166992188 106.9396362304688 C 126.9684600830078 103.4443664550781 128.9964294433594 99.70820617675781 130.6346893310547 95.83490753173828 C 134.0428619384766 87.77708435058594 135.7709655761719 79.21466064453125 135.7709655761719 70.38547515869141 C 135.7709655761719 61.55628967285156 134.0428619384766 52.99385833740234 130.6346893310547 44.93604278564453 C 128.9964294433594 41.062744140625 126.9684600830078 37.32659149169922 124.6071166992188 33.83131408691406 C 122.2673263549805 30.36797332763672 119.580078125 27.11104583740234 116.620002746582 24.15095520019531 C 113.659912109375 21.19088745117188 110.4029846191406 18.50363159179688 106.9396362304688 16.16384124755859 C 103.4443664550781 13.80249786376953 99.70820617675781 11.77452087402344 95.83491516113281 10.13627624511719 C 87.777099609375 6.72808837890625 79.21466064453125 5 70.38548278808594 5 M 70.38548278808594 0 C 109.25830078125 0 140.7709655761719 31.51265716552734 140.7709655761719 70.38547515869141 C 140.7709655761719 109.2582931518555 109.25830078125 140.7709503173828 70.38548278808594 140.7709503173828 C 31.51266479492188 140.7709503173828 0 109.2582931518555 0 70.38547515869141 C 0 31.51265716552734 31.51266479492188 0 70.38548278808594 0 Z" stroke="none" fill="#dcdcdc"/>
              </g>
            </g>
          </g>
        </g>
        <text id="_75_3" data-name="75%" transform="translate(726 2960)" fill="#fff" font-size="24" font-family="SegoeUI, Segoe UI"><tspan x="0" y="0">75%</tspan></text>
      </g>
    </g>
    <g id="Photoshop4" transform="translate(809)">
      <text id="Photoshop-4" data-name="Photoshop" transform="translate(545 2338)" fill="#878787" font-size="24" font-family="SegoeUI, Segoe UI"><tspan x="0" y="0">Photoshop</tspan></text>
      <g id="그룹_103-4" data-name="그룹 103" transform="translate(-128 -724)">
        <g id="그룹_55-4" data-name="그룹 55" transform="translate(663 2866.303)">
          <g transform="matrix(1, 0, 0, 1, -810, -0.3)" filter="url(#타원_21-4)">
            <g id="타원_21-9" data-name="타원 21" transform="translate(829 15)" fill="none" stroke="#fff" stroke-width="1">
              <ellipse cx="69.5" cy="69" rx="69.5" ry="69" stroke="none"/>
              <ellipse cx="69.5" cy="69" rx="69" ry="68.5" fill="none"/>
            </g>
          </g>
          <g id="마스크_그룹_22-4" data-name="마스크 그룹 22" transform="translate(0 0)" clip-path="url(#clip-path)">
            <g transform="matrix(1, 0, 0, 1, -810, -0.3)" filter="url(#패스_142-4)">
              <g id="패스_142-9" data-name="패스 142" transform="translate(827.94 14.23)" fill="none">
                <path d="M70.385,0A70.385,70.385,0,1,1,0,70.385,70.385,70.385,0,0,1,70.385,0Z" stroke="none"/>
                <path d="M 70.38548278808594 5 C 61.55629730224609 5 52.99386596679688 6.72808837890625 44.93605041503906 10.13627624511719 C 41.06275177001953 11.77452087402344 37.32659912109375 13.80249786376953 33.83132171630859 16.16384124755859 C 30.36798095703125 18.50363159179688 27.11105346679688 21.19088745117188 24.15096282958984 24.15095520019531 C 21.19089508056641 27.11104583740234 18.50363922119141 30.36797332763672 16.16384887695312 33.83131408691406 C 13.80250549316406 37.32659149169922 11.77452087402344 41.062744140625 10.13627624511719 44.93604278564453 C 6.728103637695312 52.99385833740234 5 61.55628967285156 5 70.38547515869141 C 5 79.21466064453125 6.728103637695312 87.77708435058594 10.13627624511719 95.83490753173828 C 11.77452087402344 99.70820617675781 13.80250549316406 103.4443664550781 16.16384887695312 106.9396362304688 C 18.50363922119141 110.4029769897461 21.19089508056641 113.6599044799805 24.15096282958984 116.6199951171875 C 27.11105346679688 119.5800628662109 30.36798095703125 122.2673187255859 33.83132171630859 124.6071090698242 C 37.32659912109375 126.9684524536133 41.06275177001953 128.9964294433594 44.93605041503906 130.6346740722656 C 52.99386596679688 134.0428619384766 61.55629730224609 135.7709503173828 70.38548278808594 135.7709503173828 C 79.21466064453125 135.7709503173828 87.777099609375 134.0428619384766 95.83491516113281 130.6346740722656 C 99.70820617675781 128.9964294433594 103.4443664550781 126.9684524536133 106.9396362304688 124.6071090698242 C 110.4029846191406 122.2673187255859 113.659912109375 119.5800628662109 116.620002746582 116.6199951171875 C 119.580078125 113.6599044799805 122.2673263549805 110.4029769897461 124.6071166992188 106.9396362304688 C 126.9684600830078 103.4443664550781 128.9964294433594 99.70820617675781 130.6346893310547 95.83490753173828 C 134.0428619384766 87.77708435058594 135.7709655761719 79.21466064453125 135.7709655761719 70.38547515869141 C 135.7709655761719 61.55628967285156 134.0428619384766 52.99385833740234 130.6346893310547 44.93604278564453 C 128.9964294433594 41.062744140625 126.9684600830078 37.32659149169922 124.6071166992188 33.83131408691406 C 122.2673263549805 30.36797332763672 119.580078125 27.11104583740234 116.620002746582 24.15095520019531 C 113.659912109375 21.19088745117188 110.4029846191406 18.50363159179688 106.9396362304688 16.16384124755859 C 103.4443664550781 13.80249786376953 99.70820617675781 11.77452087402344 95.83491516113281 10.13627624511719 C 87.777099609375 6.72808837890625 79.21466064453125 5 70.38548278808594 5 M 70.38548278808594 0 C 109.25830078125 0 140.7709655761719 31.51265716552734 140.7709655761719 70.38547515869141 C 140.7709655761719 109.2582931518555 109.25830078125 140.7709503173828 70.38548278808594 140.7709503173828 C 31.51266479492188 140.7709503173828 0 109.2582931518555 0 70.38547515869141 C 0 31.51265716552734 31.51266479492188 0 70.38548278808594 0 Z" stroke="none" fill="#dcdcdc"/>
              </g>
            </g>
          </g>
        </g>
        <text id="_75_4" data-name="75%" transform="translate(726 2960)" fill="#fff" font-size="24" font-family="SegoeUI, Segoe UI"><tspan x="0" y="0">75%</tspan></text>
      </g>
    </g>
    <g id="Photoshop5" transform="translate(1079)">
      <text id="Photoshop-5" data-name="Photoshop" transform="translate(545 2338)" fill="#878787" font-size="24" font-family="SegoeUI, Segoe UI"><tspan x="0" y="0">Photoshop</tspan></text>
      <g id="그룹_103-5" data-name="그룹 103" transform="translate(-128 -724)">
        <g id="그룹_55-5" data-name="그룹 55" transform="translate(663 2866.303)">
          <g transform="matrix(1, 0, 0, 1, -1080, -0.3)" filter="url(#타원_21-5)">
            <g id="타원_21-10" data-name="타원 21" transform="translate(1099 15)" fill="none" stroke="#fff" stroke-width="1">
              <ellipse cx="69.5" cy="69" rx="69.5" ry="69" stroke="none"/>
              <ellipse cx="69.5" cy="69" rx="69" ry="68.5" fill="none"/>
            </g>
          </g>
          <g id="마스크_그룹_22-5" data-name="마스크 그룹 22" transform="translate(0 0)" clip-path="url(#clip-path)">
            <g transform="matrix(1, 0, 0, 1, -1080, -0.3)" filter="url(#패스_142-5)">
              <g id="패스_142-10" data-name="패스 142" transform="translate(1097.94 14.23)" fill="none">
                <path d="M70.385,0A70.385,70.385,0,1,1,0,70.385,70.385,70.385,0,0,1,70.385,0Z" stroke="none"/>
                <path d="M 70.38548278808594 5 C 61.55629730224609 5 52.99386596679688 6.72808837890625 44.93605041503906 10.13627624511719 C 41.06275177001953 11.77452087402344 37.32659912109375 13.80249786376953 33.83132171630859 16.16384124755859 C 30.36798095703125 18.50363159179688 27.11105346679688 21.19088745117188 24.15096282958984 24.15095520019531 C 21.19089508056641 27.11104583740234 18.50363922119141 30.36797332763672 16.16384887695312 33.83131408691406 C 13.80250549316406 37.32659149169922 11.77452087402344 41.062744140625 10.13627624511719 44.93604278564453 C 6.728103637695312 52.99385833740234 5 61.55628967285156 5 70.38547515869141 C 5 79.21466064453125 6.728103637695312 87.77708435058594 10.13627624511719 95.83490753173828 C 11.77452087402344 99.70820617675781 13.80250549316406 103.4443664550781 16.16384887695312 106.9396362304688 C 18.50363922119141 110.4029769897461 21.19089508056641 113.6599044799805 24.15096282958984 116.6199951171875 C 27.11105346679688 119.5800628662109 30.36798095703125 122.2673187255859 33.83132171630859 124.6071090698242 C 37.32659912109375 126.9684524536133 41.06275177001953 128.9964294433594 44.93605041503906 130.6346740722656 C 52.99386596679688 134.0428619384766 61.55629730224609 135.7709503173828 70.38548278808594 135.7709503173828 C 79.21466064453125 135.7709503173828 87.777099609375 134.0428619384766 95.83491516113281 130.6346740722656 C 99.70820617675781 128.9964294433594 103.4443664550781 126.9684524536133 106.9396362304688 124.6071090698242 C 110.4029846191406 122.2673187255859 113.659912109375 119.5800628662109 116.620002746582 116.6199951171875 C 119.580078125 113.6599044799805 122.2673263549805 110.4029769897461 124.6071166992188 106.9396362304688 C 126.9684600830078 103.4443664550781 128.9964294433594 99.70820617675781 130.6346893310547 95.83490753173828 C 134.0428619384766 87.77708435058594 135.7709655761719 79.21466064453125 135.7709655761719 70.38547515869141 C 135.7709655761719 61.55628967285156 134.0428619384766 52.99385833740234 130.6346893310547 44.93604278564453 C 128.9964294433594 41.062744140625 126.9684600830078 37.32659149169922 124.6071166992188 33.83131408691406 C 122.2673263549805 30.36797332763672 119.580078125 27.11104583740234 116.620002746582 24.15095520019531 C 113.659912109375 21.19088745117188 110.4029846191406 18.50363159179688 106.9396362304688 16.16384124755859 C 103.4443664550781 13.80249786376953 99.70820617675781 11.77452087402344 95.83491516113281 10.13627624511719 C 87.777099609375 6.72808837890625 79.21466064453125 5 70.38548278808594 5 M 70.38548278808594 0 C 109.25830078125 0 140.7709655761719 31.51265716552734 140.7709655761719 70.38547515869141 C 140.7709655761719 109.2582931518555 109.25830078125 140.7709503173828 70.38548278808594 140.7709503173828 C 31.51266479492188 140.7709503173828 0 109.2582931518555 0 70.38547515869141 C 0 31.51265716552734 31.51266479492188 0 70.38548278808594 0 Z" stroke="none" fill="#dcdcdc"/>
              </g>
            </g>
          </g>
        </g>
        <text id="_75_5" data-name="75%" transform="translate(726 2960)" fill="#fff" font-size="24" font-family="SegoeUI, Segoe UI"><tspan x="0" y="0">75%</tspan></text>
      </g>
    </g>
  </g>
</svg>
